<svg width="23" height="22" viewBox="0 0 23 22" fill="none" xmlns="http://www.w3.org/2000/svg">
    <mask id="path-1-outside-1_48_38" maskUnits="userSpaceOnUse" x="0" y="3" width="23" height="15" fill="black">
        <rect fill="white" y="3" width="23" height="15"/>
        <path fill-rule="evenodd" clip-rule="evenodd" d="M3 10.5C4.68456 7.22419 7.97291 5 11.7537 5C15.5344 5 18.8228 7.22419 20.5073 10.5C18.8228 13.7758 15.5344 16 11.7537 16C7.97291 16 4.68456 13.7758 3 10.5Z"/>
    </mask>
    <path d="M3 10.5L1.22139 9.58537L0.75105 10.5L1.22139 11.4146L3 10.5ZM20.5073 10.5L22.2859 11.4146L22.7563 10.5L22.2859 9.58537L20.5073 10.5ZM4.77861 11.4146C6.15307 8.74183 8.79105 7 11.7537 7V3C7.15477 3 3.21604 5.70655 1.22139 9.58537L4.77861 11.4146ZM11.7537 7C14.7163 7 17.3542 8.74183 18.7287 11.4146L22.2859 9.58537C20.2913 5.70656 16.3525 3 11.7537 3V7ZM18.7287 9.58537C17.3542 12.2582 14.7163 14 11.7537 14V18C16.3525 18 20.2913 15.2935 22.2859 11.4146L18.7287 9.58537ZM11.7537 14C8.79105 14 6.15307 12.2582 4.77861 9.58537L1.22139 11.4146C3.21604 15.2935 7.15477 18 11.7537 18V14Z" fill="black" mask="url(#path-1-outside-1_48_38)"/>
    <ellipse cx="11.6363" cy="10.5" rx="3.54841" ry="3.66667" fill="black"/>
</svg>
